<svg width="22" height="22" viewBox="0 0 25 24" fill="none" xmlns="http://www.w3.org/2000/svg">
<path fill-rule="evenodd" clip-rule="evenodd" d="M1.39233 12C1.39233 5.92487 6.3172 1 12.3923 1C18.4675 1 23.3923 5.92487 23.3923 12C23.3923 18.0751 18.4675 23 12.3923 23C6.3172 23 1.39233 18.0751 1.39233 12ZM4.03739 8.64769C3.6213 9.68376 3.39233 10.8151 3.39233 12C3.39233 12.6299 3.45705 13.2447 3.58019 13.8381C4.54949 14.3465 5.56779 14.7734 6.62618 15.1101C6.4736 14.123 6.39219 13.0788 6.39219 12.0004C6.39219 11.3391 6.4228 10.6911 6.48155 10.0616C5.61744 9.66992 4.79932 9.19519 4.03739 8.64769ZM4.99618 6.87053C5.55839 7.29259 6.15772 7.66765 6.7883 7.98992C7.09702 6.4924 7.57786 5.14026 8.20012 4.03394C6.91781 4.71017 5.81859 5.68694 4.99618 6.87053ZM12.1487 3.00323L12.1512 3.0192C11.5032 3.12072 10.7395 3.67034 10.035 4.85579C9.44309 5.85176 8.96088 7.19239 8.67534 8.76387C9.84734 9.13387 11.0957 9.3337 12.3922 9.3337L12.3936 9.3337C13.664 9.33553 14.9164 9.14041 16.109 8.76382C15.8235 7.19237 15.3413 5.85175 14.7494 4.8558C14.0448 3.67035 13.2812 3.12072 12.6332 3.0192L12.6357 3.00323C12.5548 3.00108 12.4737 3 12.3923 3C12.3109 3 12.2296 3.00108 12.1487 3.00323ZM16.5841 4.03372C17.2065 5.1402 17.6874 6.49258 17.9962 7.99039C18.6221 7.67081 19.2221 7.29674 19.7887 6.87091C18.9662 5.68702 17.8667 4.71002 16.5841 4.03372ZM20.7475 8.64822C19.9782 9.20131 19.1589 9.67413 18.3028 10.0618C18.3616 10.6913 18.3922 11.3392 18.3922 12.0004C18.3922 13.0787 18.3108 14.1228 18.1582 15.1098C19.2055 14.7765 20.225 14.3515 21.2045 13.8379C21.3276 13.2446 21.3923 12.6298 21.3923 12C21.3923 10.8153 21.1634 9.68415 20.7475 8.64822ZM20.1844 16.5068C19.3631 16.835 18.5226 17.1106 17.6681 17.332C17.384 18.3009 17.0202 19.1915 16.5847 19.966C18.0855 19.1745 19.3355 17.9713 20.1844 16.5068ZM12.6757 20.9956L12.6719 20.975C13.2057 20.8778 13.8182 20.4787 14.4189 19.6495C14.7818 19.1486 15.1164 18.5214 15.4033 17.787C14.409 17.9301 13.4025 18.0019 12.3914 18.0004C11.3696 18.0003 10.3643 17.9273 9.38071 17.786C9.66765 18.5208 10.0024 19.1483 10.3654 19.6494C10.9661 20.4787 11.5787 20.8778 12.1125 20.975L12.1087 20.9956C12.2029 20.9985 12.2974 21 12.3923 21C12.4871 21 12.5816 20.9985 12.6757 20.9956ZM8.19954 19.9657C7.76409 19.1914 7.40032 18.3008 7.11627 17.3319C6.25503 17.1091 5.41523 16.8329 4.60059 16.5073C5.44942 17.9715 6.69913 19.1744 8.19954 19.9657ZM8.75669 15.6532C9.93266 15.881 11.148 16.0004 12.3922 16.0004L12.3938 16.0004C13.618 16.0023 14.8348 15.8853 16.0276 15.6537C16.2613 14.5373 16.3922 13.3027 16.3922 12.0004C16.3922 11.586 16.3789 11.1783 16.3533 10.7789C15.0749 11.146 13.742 11.3356 12.3915 11.3337C11.0188 11.3336 9.68983 11.1402 8.43108 10.7789C8.40545 11.1783 8.39219 11.586 8.39219 12.0004C8.39219 13.3025 8.52307 14.5369 8.75669 15.6532Z" fill="#636C79"/>
</svg>
